<?xml version="1.0" standalone="no"?>
<!DOCTYPE svg PUBLIC "-//W3C//DTD SVG 20010904//EN"
 "http://www.w3.org/TR/2001/REC-SVG-20010904/DTD/svg10.dtd">
<svg version="1.0" xmlns="http://www.w3.org/2000/svg"
 width="500.000000pt" height="500.000000pt" viewBox="0 0 500.000000 500.000000"
 preserveAspectRatio="xMidYMid meet">
<metadata>
Created by potrace 1.14, written by Peter Selinger 2001-2017
</metadata>
<g transform="translate(0.000000,500.000000) scale(0.100000,-0.100000)"
fill="#000000" stroke="none">
<path d="M3145 4829 c-4 -6 -5 -12 -2 -15 2 -3 7 2 10 11 7 17 1 20 -8 4z"/>
<path d="M2388 4793 c-7 -16 -13 -30 -15 -32 -1 -2 -15 4 -30 14 -18 12 -28
14 -31 7 -4 -14 -32 -16 -32 -2 0 5 -7 7 -15 4 -8 -4 -15 -13 -15 -21 0 -8 5
-11 10 -8 6 3 10 1 10 -5 0 -6 -12 -11 -27 -10 -52 4 -73 0 -73 -12 0 -7 -11
-18 -25 -25 -18 -8 -25 -8 -25 0 0 7 -4 7 -12 -1 -14 -14 -32 -16 -23 -3 3 5
1 12 -5 16 -5 3 -10 2 -10 -4 0 -6 -8 -7 -17 -4 -16 6 -16 5 -4 -10 15 -19 12
-21 -21 -8 -17 6 -29 5 -43 -5 -10 -8 -27 -14 -37 -14 -25 0 -95 -38 -102 -56
-3 -8 -15 -14 -26 -14 -11 0 -23 -6 -26 -14 -3 -8 -14 -16 -25 -19 -10 -3 -19
-13 -19 -24 0 -15 2 -16 10 -3 6 9 10 10 10 3 0 -9 12 -8 46 4 25 8 48 13 51
9 9 -8 -47 -27 -92 -31 -26 -1 -39 -7 -37 -15 2 -8 -3 -10 -13 -7 -8 4 -15 2
-15 -3 0 -15 -17 -12 -23 4 -4 10 -1 13 8 10 8 -4 20 6 29 24 9 17 23 37 31
46 30 29 -11 19 -47 -12 -33 -28 -50 -40 -119 -86 -24 -16 -39 -37 -47 -64 -9
-29 -19 -42 -38 -46 -14 -4 -45 -26 -70 -51 -34 -33 -44 -49 -39 -64 3 -12 0
-23 -8 -28 -19 -10 -57 -74 -57 -93 0 -13 1 -13 10 0 6 9 10 10 10 3 0 -7 -8
-17 -19 -22 -29 -16 -52 -75 -56 -144 -2 -34 -11 -109 -20 -167 -19 -123 -20
-213 -6 -330 6 -47 11 -114 11 -150 1 -36 4 -84 7 -108 5 -37 8 -43 27 -40 12
2 20 9 18 18 -2 8 -9 53 -16 100 -12 81 -12 87 9 130 12 25 20 51 18 58 -3 6
0 12 5 12 8 0 8 49 0 130 -3 37 15 146 31 189 20 51 34 61 168 111 17 6 34 18
37 26 3 8 10 14 16 14 5 0 33 23 61 50 28 28 55 50 59 50 4 0 10 6 13 14 8 19
157 116 179 116 10 0 18 4 18 8 0 5 35 21 78 36 79 27 213 47 280 40 20 -2 41
1 48 7 7 6 17 8 23 5 5 -4 15 -1 23 6 7 7 29 13 48 14 37 1 130 33 141 48 4 5
16 6 28 3 12 -3 21 -2 21 2 0 4 23 6 51 5 35 -1 55 4 66 15 12 12 17 13 21 3
6 -18 29 -15 41 6 6 9 11 12 11 6 0 -17 30 -26 45 -14 7 5 23 11 37 12 17 1
24 7 21 16 -3 7 -10 11 -16 9 -6 -2 -22 7 -35 20 -19 17 -28 20 -33 11 -6 -9
-11 -9 -23 2 -9 7 -19 10 -22 7 -5 -5 -61 28 -91 53 -7 6 -13 8 -13 4 0 -3 -7
-1 -15 6 -12 10 -15 10 -15 0 0 -10 -4 -10 -17 0 -10 7 -2 -2 17 -19 19 -18
45 -40 58 -50 22 -16 23 -17 3 -17 -12 0 -21 5 -21 11 0 5 -5 3 -10 -5 -5 -8
-10 -10 -10 -5 0 6 -10 11 -22 12 -47 3 -74 11 -125 36 -63 30 -69 21 -12 -17
22 -15 38 -30 34 -34 -3 -4 -9 -2 -13 4 -4 6 -28 19 -54 30 -27 10 -49 22 -49
27 -1 4 -2 10 -3 15 -4 23 -47 62 -69 62 -14 0 -29 4 -32 10 -3 5 -16 10 -28
9 -12 0 -46 3 -74 6 -35 4 -53 3 -53 -4 0 -6 -10 -11 -22 -10 -37 0 -116 -8
-125 -14 -4 -3 -35 -8 -68 -11 l-60 -6 72 24 c39 13 106 32 148 42 62 15 72
20 54 26 -38 14 -13 21 78 20 97 -1 141 -7 223 -29 30 -8 65 -17 78 -20 13 -3
26 -12 29 -19 3 -8 9 -12 13 -9 4 2 15 -4 25 -15 10 -11 23 -20 29 -20 6 0 3
7 -7 14 -30 23 -4 28 60 11 45 -11 21 11 -50 45 -39 19 -81 37 -92 40 -11 3
-20 12 -20 20 0 8 -15 18 -32 22 -83 20 -99 26 -74 27 16 1 21 5 18 16 -5 11
-1 12 19 4 14 -5 38 -9 52 -8 15 0 47 -2 72 -5 l45 -6 -37 11 c-21 6 -38 17
-38 23 0 8 -10 11 -28 8 -18 -2 -42 4 -63 17 -44 27 -47 26 -61 -6z m-73 -43
c3 -5 1 -10 -4 -10 -6 0 -11 5 -11 10 0 6 2 10 4 10 3 0 8 -4 11 -10z m185
-66 c0 -2 -7 -4 -15 -4 -8 0 -15 4 -15 10 0 5 7 7 15 4 8 -4 15 -8 15 -10z
m-235 -128 c11 -7 32 -16 47 -20 24 -5 98 -68 98 -82 0 -3 -13 4 -29 15 -15
11 -31 18 -34 14 -4 -3 -14 0 -24 8 -11 9 -14 10 -9 2 4 -7 3 -13 -2 -13 -15
0 -33 26 -24 36 4 4 -1 2 -10 -5 -23 -17 -23 -28 1 -36 11 -3 22 -12 25 -21 5
-12 2 -13 -16 -3 l-22 12 18 -29 c10 -16 30 -45 44 -64 26 -35 15 -31 -33 14
-11 10 -48 31 -82 48 -35 16 -63 33 -63 38 0 4 -3 16 -7 26 -5 14 -3 16 13 11
18 -7 18 -6 -1 9 -19 15 -17 16 28 11 30 -3 47 -1 47 6 0 7 4 7 12 -1 17 -17
29 -15 22 3 -4 8 -12 15 -19 15 -8 0 -17 5 -20 10 -9 15 17 12 40 -4z m-595
-65 c0 -5 -7 -14 -15 -21 -12 -10 -15 -10 -15 2 0 8 3 18 7 21 9 10 23 9 23
-2z m-63 -56 c-4 -8 -12 -15 -19 -14 -10 0 -10 2 0 6 6 2 12 12 12 21 0 8 3
13 6 9 4 -3 4 -13 1 -22z m-3 -38 c-5 -14 -34 -19 -34 -7 0 11 12 20 26 20 8
0 11 -6 8 -13z m73 -29 c-3 -8 -6 -5 -6 6 -1 11 2 17 5 13 3 -3 4 -12 1 -19z
m-134 -27 c-10 -9 -27 -21 -38 -26 -17 -7 -17 -9 -4 -12 21 -5 14 -39 -9 -47
-10 -3 -22 -8 -28 -12 -25 -11 14 69 46 96 35 30 65 31 33 1z m-110 -126 c-3
-9 -8 -14 -10 -11 -3 3 -2 9 2 15 9 16 15 13 8 -4z"/>
<path d="M2220 4508 c-12 -8 -12 -9 2 -5 9 3 19 1 22 -6 3 -9 5 -9 5 0 1 18
-13 23 -29 11z"/>
<path d="M2135 4759 c-4 -6 -4 -13 -1 -16 3 -4 6 -1 6 6 0 7 4 10 9 7 5 -4 20
-2 33 3 22 9 21 10 -9 10 -17 1 -35 -4 -38 -10z"/>
<path d="M2635 4754 c33 -15 110 -19 85 -5 -8 5 -37 11 -65 13 -48 5 -49 5
-20 -8z"/>
<path d="M2060 4741 c0 -11 39 -25 47 -18 3 3 2 10 -2 16 -8 13 -45 15 -45 2z"/>
<path d="M2835 4691 c-3 -5 5 -13 17 -16 90 -28 198 -96 198 -126 0 -10 9 -23
20 -29 11 -6 20 -16 20 -22 0 -6 -10 -4 -25 6 -31 21 -41 21 -20 0 12 -12 13
-19 5 -24 -7 -4 -49 18 -98 51 -47 33 -92 59 -99 59 -24 0 4 -38 50 -67 45
-29 97 -81 97 -96 0 -5 -17 7 -37 27 -43 40 -124 97 -104 72 11 -13 11 -16 1
-16 -7 0 6 -14 28 -30 50 -36 54 -46 10 -25 l-33 16 33 -30 c28 -27 55 -37 85
-32 4 0 7 -3 7 -8 0 -5 12 -11 26 -14 18 -3 24 -1 20 9 -9 24 3 15 18 -13 18
-35 205 -227 213 -219 3 3 1 11 -4 18 -29 38 -19 48 12 13 31 -33 33 -35 16
-8 -12 18 -19 39 -15 50 5 15 4 15 -5 3 -8 -12 -10 -11 -8 8 0 12 4 22 6 22 3
0 30 -24 60 -52 55 -53 54 -50 -6 36 -44 63 -41 68 8 18 22 -23 45 -40 49 -37
5 3 35 -21 67 -53 32 -32 46 -44 32 -27 -14 16 -38 48 -54 70 -19 27 -5 16 45
-35 62 -64 68 -68 42 -30 -16 25 -43 61 -60 80 -36 41 -33 52 6 24 34 -25 63
-41 40 -21 -23 18 -23 28 -1 20 27 -11 7 11 -39 43 -24 16 -46 32 -49 37 -9
12 -192 107 -206 107 -8 0 -22 19 -32 43 -10 23 -37 66 -61 95 -35 45 -46 53
-66 48 -14 -4 -35 1 -56 14 -18 11 -40 20 -48 20 -8 0 -28 7 -44 15 -32 17
-52 19 -61 6z m235 -76 c7 -8 8 -15 2 -15 -5 0 -15 7 -22 15 -7 8 -8 15 -2 15
5 0 15 -7 22 -15z"/>
<path d="M3380 4222 c0 -5 10 -17 22 -28 l21 -19 -18 28 c-18 28 -25 33 -25
19z"/>
<path d="M3620 4148 c0 -3 9 -27 20 -53 11 -26 20 -56 19 -68 0 -16 -4 -12
-16 16 -8 20 -19 37 -23 37 -18 0 -29 -29 -25 -69 3 -39 2 -41 -10 -25 -17 23
-19 38 -3 28 7 -5 8 -3 4 5 -5 7 -11 10 -14 7 -3 -3 -11 -1 -18 5 -11 9 -12 6
-3 -20 6 -17 15 -34 20 -37 5 -3 9 -12 9 -20 0 -8 -16 4 -36 26 -38 42 -54 47
-35 11 10 -17 9 -20 -5 -14 -14 5 -15 3 -4 -18 12 -22 12 -23 -3 -10 -16 12
-16 11 -2 -22 20 -48 19 -68 -2 -42 -14 18 -15 18 -9 2 12 -36 19 -72 12 -66
-4 4 -23 35 -42 70 -35 63 -35 63 -29 24 l7 -40 -22 20 -22 20 17 -43 c10 -23
14 -50 10 -59 -6 -16 -8 -15 -17 7 l-10 25 -12 -35 c-8 -21 -15 -29 -17 -21
-4 10 -12 12 -24 7 -14 -5 -16 -9 -7 -18 18 -18 15 -41 -4 -34 -8 3 -13 2 -9
-3 3 -5 1 -11 -5 -13 -5 -1 -11 -26 -13 -53 -2 -28 -6 -56 -11 -63 -4 -7 -3
-18 2 -25 6 -7 10 -16 10 -20 0 -4 10 -28 23 -53 13 -29 24 -41 29 -34 5 8 9
7 14 -5 9 -24 8 -27 -6 -19 -8 5 -7 0 2 -13 55 -77 81 -116 78 -118 -22 -16
-111 -26 -185 -22 -48 3 -108 3 -133 -1 -27 -5 -105 0 -200 11 -217 26 -397
19 -475 -17 -30 -15 -55 -30 -55 -35 0 -5 -15 -14 -32 -21 -18 -7 -47 -19 -65
-26 -17 -8 -58 -14 -91 -14 -34 0 -73 -5 -88 -10 -23 -9 -34 -6 -78 24 -76 51
-114 60 -230 53 -99 -6 -167 -17 -336 -58 -47 -11 -95 -22 -107 -25 -18 -3
-23 -11 -23 -38 0 -20 8 -40 19 -50 12 -11 27 -49 37 -94 31 -136 117 -292
160 -292 8 0 17 -6 20 -14 3 -8 29 -24 57 -37 75 -33 211 -33 284 0 59 26 130
96 163 161 28 56 70 184 70 216 0 50 63 87 114 68 9 -3 40 -56 70 -117 69
-142 122 -202 217 -250 84 -43 147 -48 257 -20 57 14 75 24 118 67 79 80 124
201 124 339 0 55 7 77 26 77 8 0 11 6 8 15 -6 14 10 21 71 29 17 3 67 9 112
15 68 10 88 9 117 -3 26 -11 36 -11 40 -3 3 8 12 3 25 -12 21 -23 21 -23 21
-2 0 13 4 19 10 16 6 -4 17 -1 25 5 8 6 19 9 25 5 10 -6 103 11 123 22 4 3 2
12 -5 21 -12 14 -10 14 10 3 12 -6 26 -9 31 -7 9 6 6 259 -4 441 -3 50 -5 130
-5 178 1 58 -4 105 -16 140 -15 46 -44 102 -44 85z m-306 -554 c3 -8 2 -12 -4
-9 -6 3 -10 10 -10 16 0 14 7 11 14 -7z m100 -110 c11 -28 6 -39 -9 -20 -8 11
-15 23 -15 28 0 14 18 9 24 -8z m98 -9 c3 0 10 -4 15 -9 5 -5 3 -6 -4 -2 -16
9 -17 -16 -2 -31 6 -6 8 -17 3 -24 -5 -9 -12 -2 -21 22 l-13 34 3 -30 c1 -16
9 -35 17 -42 13 -11 12 -12 -7 -13 -14 0 -23 -8 -26 -22 -2 -13 -5 -4 -6 19 0
23 -5 53 -11 68 -7 19 -7 24 1 19 8 -4 9 1 4 16 -6 20 -5 21 17 9 12 -7 26
-13 30 -14z m-58 -65 c-6 -6 -10 -3 -10 10 0 13 4 16 10 10 7 -7 7 -13 0 -20z
m121 1 c3 -5 0 -21 -6 -35 l-12 -26 -14 27 c-11 21 -11 28 -1 35 17 10 26 10
33 -1z m36 -28 c13 -16 12 -17 -3 -4 -17 13 -22 21 -14 21 2 0 10 -8 17 -17z
m-79 -25 c-7 -7 -12 -8 -12 -2 0 6 3 14 7 17 3 4 9 5 12 2 2 -3 -1 -11 -7 -17z
m75 -64 c-3 -3 -12 -4 -19 -1 -8 3 -5 6 6 6 11 1 17 -2 13 -5z m-722 -27 c27
-10 40 -21 40 -34 0 -10 -6 -18 -14 -18 -8 0 -16 -6 -18 -12 -3 -8 4 -13 16
-13 14 0 19 -5 15 -15 -8 -19 36 -21 54 -3 9 9 12 9 13 -3 1 -7 1 -17 0 -22
-1 -4 5 -22 13 -41 10 -25 12 -52 6 -104 -14 -125 -66 -198 -180 -250 -111
-52 -256 -28 -353 57 -67 59 -116 202 -95 277 10 39 38 88 38 68 0 -5 -5 -15
-12 -22 -10 -10 -7 -16 12 -30 32 -22 44 -22 48 3 3 16 1 17 -7 5 -9 -13 -11
-12 -11 4 0 16 -2 17 -16 5 -15 -12 -16 -11 -9 11 4 14 12 28 18 31 5 4 7 14
4 24 -6 13 -3 15 13 10 14 -5 20 -2 20 9 0 9 6 16 13 17 6 0 35 2 62 5 67 8
164 8 198 1 31 -6 33 -2 13 19 -8 8 -32 14 -53 14 -36 1 -37 1 -18 16 25 19
131 14 190 -9z m265 7 c0 -2 -7 -4 -15 -4 -8 0 -15 4 -15 10 0 5 7 7 15 4 8
-4 15 -8 15 -10z m-158 -19 c3 -15 1 -25 -6 -25 -6 0 -12 11 -12 25 -2 32 12
32 18 0z m-1554 -120 c0 -14 -4 -25 -9 -25 -5 0 -9 11 -9 25 0 14 4 25 9 25 5
0 9 -11 9 -25z m359 -2 c5 -13 -104 -35 -165 -34 -13 1 -20 -4 -17 -9 3 -6 -1
-10 -9 -10 -9 0 -16 -6 -17 -12 0 -10 -2 -10 -5 -1 -7 17 26 47 72 66 42 17
136 17 141 0z m-17 -42 c0 -5 -19 -11 -42 -15 -23 -4 -48 -12 -55 -18 -9 -7
-13 -7 -13 0 0 15 13 22 62 31 24 5 44 9 46 10 1 1 2 -3 2 -8z m-254 -26 c48
4 57 -4 22 -20 -15 -7 -22 -21 -25 -45 -3 -34 -2 -35 34 -35 21 1 43 4 49 8
11 6 115 -1 123 -8 1 -2 14 0 27 5 14 6 26 6 29 0 3 -5 18 -4 35 2 17 5 67 8
111 6 44 -2 82 -1 85 4 15 24 56 -14 50 -45 -10 -52 -69 -170 -99 -197 -63
-57 -114 -75 -207 -75 -144 1 -234 58 -280 180 -13 33 -29 74 -36 92 -18 40
-18 41 8 104 13 32 24 47 26 37 3 -14 12 -16 48 -13z m134 -15 c0 -5 -4 -10
-10 -10 -5 0 -10 5 -10 10 0 6 5 10 10 10 6 0 10 -4 10 -10z m165 -10 c3 -6
-4 -10 -17 -10 -18 0 -20 2 -8 10 19 12 18 12 25 0z"/>
<path d="M2890 3246 c0 -2 7 -7 16 -10 8 -3 12 -2 9 4 -6 10 -25 14 -25 6z"/>
<path d="M2540 3161 c0 -5 -9 -11 -21 -13 -14 -2 -25 -15 -34 -40 -12 -35 -11
-38 6 -38 16 0 17 -4 9 -25 -11 -28 -5 -30 63 -19 25 5 37 12 37 23 0 17 18
41 31 41 4 0 10 -13 14 -30 6 -27 11 -30 43 -30 21 0 53 5 72 11 19 6 75 13
123 14 49 2 91 6 94 9 8 8 -16 35 -46 51 -54 27 -160 47 -273 51 -70 3 -118 0
-118 -5z m226 -19 c-6 -10 -93 -8 -103 2 -3 3 19 6 51 6 31 0 55 -4 52 -8z
m-129 -8 c-3 -3 -12 -4 -19 -1 -8 3 -5 6 6 6 11 1 17 -2 13 -5z"/>
<path d="M2471 3144 c0 -11 3 -14 6 -6 3 7 2 16 -1 19 -3 4 -6 -2 -5 -13z"/>
<path d="M1943 2938 c-26 -12 -32 -31 -7 -21 9 3 20 0 26 -8 7 -11 8 -9 4 5
-4 11 -1 23 6 28 19 11 -3 9 -29 -4z"/>
<path d="M1990 2929 c0 -5 5 -7 10 -4 6 3 10 8 10 11 0 2 -4 4 -10 4 -5 0 -10
-5 -10 -11z"/>
<path d="M3516 3113 c6 -27 6 -27 -9 -8 -14 18 -15 17 -15 -19 0 -23 3 -34 8
-26 6 10 10 9 16 -3 6 -11 10 -2 11 29 1 24 -3 46 -8 50 -6 3 -7 -5 -3 -23z"/>
<path d="M1288 3123 c6 -2 10 -9 6 -14 -3 -5 -1 -9 5 -9 17 0 21 18 5 24 -9 3
-19 6 -22 5 -4 0 -1 -3 6 -6z"/>
<path d="M1297 3006 c-4 -10 -7 -32 -6 -49 1 -31 1 -31 10 7 10 43 7 72 -4 42z"/>
<path d="M1282 2742 c4 -14 2 -20 -4 -16 -7 4 -8 -8 -3 -37 4 -24 10 -45 14
-47 4 -1 6 -21 4 -45 -1 -23 0 -34 3 -24 3 9 9 15 13 13 4 -3 8 27 9 65 2 42
-2 69 -8 69 -5 0 -10 6 -10 14 0 8 -5 18 -12 22 -8 5 -9 0 -6 -14z"/>
<path d="M3514 2611 c16 -54 18 -74 7 -67 -7 5 -11 -2 -11 -21 0 -18 -3 -24
-8 -15 -6 8 -12 -3 -19 -32 -5 -25 -7 -45 -4 -44 20 2 31 -3 26 -12 -4 -6 -11
-7 -17 -4 -7 5 -9 0 -6 -14 4 -12 2 -20 -3 -16 -5 3 -9 12 -9 20 0 8 -5 12
-10 9 -6 -4 -8 -23 -6 -43 3 -20 3 -29 0 -19 -11 34 -24 16 -25 -35 -1 -29 -1
-59 0 -65 1 -7 -3 -13 -8 -13 -5 0 -15 -16 -22 -35 -7 -19 -17 -35 -22 -35 -5
0 -7 -10 -3 -23 3 -14 -1 -33 -10 -46 -9 -12 -14 -33 -12 -46 4 -16 1 -22 -8
-18 -8 3 -16 -6 -20 -24 -8 -31 -48 -85 -58 -76 -3 3 -3 25 1 49 4 30 2 44 -6
44 -6 0 -12 8 -12 18 -1 9 -5 1 -8 -18 -4 -19 -3 -48 1 -64 5 -18 2 -41 -7
-62 -13 -33 -30 -50 -19 -19 6 16 -4 19 -30 9 -9 -3 -16 -14 -16 -23 0 -14 -2
-14 -10 -1 -7 11 -5 18 5 26 8 6 15 19 15 28 0 13 -5 16 -21 11 -18 -6 -20 -4
-14 17 4 12 12 28 17 33 6 6 6 3 2 -10 -7 -18 -6 -18 9 -6 15 12 17 11 17 -8
0 -12 5 -19 10 -16 6 3 10 19 10 35 0 16 4 31 8 34 5 3 10 25 11 48 1 24 2 54
4 67 3 30 -19 39 -28 12 -3 -12 -12 -21 -20 -21 -7 0 -18 -15 -25 -32 -8 -22
-14 -28 -18 -18 -6 17 -43 -149 -45 -207 -1 -23 -5 -39 -9 -37 -5 3 -9 -9 -9
-25 -2 -50 -3 -54 -16 -58 -9 -3 -11 5 -8 29 5 30 4 28 -13 -12 -10 -25 -24
-44 -31 -42 -6 1 -14 -5 -18 -14 -5 -13 -7 -13 -14 -2 -7 10 -9 9 -9 -4 0 -16
-11 -23 -33 -19 -5 1 -11 -8 -14 -19 -6 -21 -23 -28 -23 -8 0 6 -3 8 -7 5 -3
-4 2 -15 11 -26 18 -20 12 -30 -16 -26 -13 2 -18 -3 -18 -18 0 -20 0 -21 -16
-1 -15 18 -15 18 -9 -10 5 -26 4 -28 -9 -17 -14 11 -16 11 -16 -5 0 -16 -2
-17 -10 -4 -8 12 -10 12 -10 1 0 -8 -7 -11 -20 -8 -13 3 -20 0 -20 -10 0 -8
-4 -11 -10 -8 -5 3 -20 -3 -32 -15 -19 -18 -20 -22 -8 -30 9 -6 10 -10 3 -10
-6 0 -18 9 -26 21 -15 20 -15 20 -22 -12 -7 -31 -8 -31 -19 -12 -10 19 -12 20
-26 5 -14 -15 -15 -15 -18 1 -7 38 -21 14 -19 -33 1 -27 -1 -50 -5 -50 -5 0
-8 19 -9 43 -1 34 -2 37 -8 17 -7 -25 -7 -25 -19 8 -13 38 -32 34 -32 -7 0
-17 -5 -28 -14 -28 -8 0 -12 7 -9 16 7 19 -41 -28 -50 -49 -3 -10 -6 -11 -6
-2 -2 20 -18 14 -26 -10 -6 -20 -8 -20 -12 -5 -2 9 -9 15 -14 12 -5 -4 -9 1
-9 9 0 22 -38 20 -42 -1 -3 -14 -14 -18 -51 -18 -26 0 -47 3 -47 6 0 4 -13 9
-30 13 -18 3 -30 12 -30 21 0 9 -4 13 -10 10 -5 -3 -10 -15 -10 -26 0 -11 -4
-18 -9 -15 -5 4 -12 0 -14 -6 -3 -7 -3 8 0 33 3 29 1 49 -6 53 -7 5 -11 -2
-11 -18 0 -14 -4 -26 -10 -26 -5 0 -10 5 -10 11 0 5 -5 7 -12 3 -6 -4 -9 -3
-5 2 3 5 2 25 -2 44 l-7 35 -27 -29 -27 -29 6 33 c6 25 4 32 -7 28 -7 -2 -16
-15 -20 -29 -4 -13 -7 -18 -8 -11 -1 6 -7 12 -14 12 -7 0 -18 9 -25 20 -7 12
-17 18 -23 15 -6 -4 -8 3 -5 18 3 16 -1 24 -10 24 -10 0 -12 -7 -8 -21 5 -19
4 -19 -11 2 -10 13 -18 34 -19 48 0 15 -6 22 -13 19 -7 -2 -13 3 -13 13 -1 9
-7 30 -13 46 l-13 29 -17 -34 -18 -34 3 37 c1 20 -1 40 -4 44 -4 3 -4 20 -1
36 4 22 2 29 -8 27 -8 -2 -27 9 -43 24 -16 15 -35 26 -41 23 -6 -2 -11 4 -12
13 -1 9 -2 33 -4 54 -1 20 -5 37 -8 37 -4 0 -12 10 -20 21 -11 19 -11 21 3 16
10 -4 13 -1 9 9 -3 8 5 25 18 38 37 37 48 53 42 60 -4 3 0 6 8 6 11 0 11 2 -1
10 -13 8 -12 10 3 10 9 0 17 -5 17 -11 0 -6 14 -1 31 12 30 21 31 21 65 3 20
-11 42 -27 51 -36 9 -10 26 -18 38 -18 13 0 26 -7 29 -16 4 -9 9 -14 12 -11 3
3 18 1 33 -5 46 -18 84 -21 78 -6 -2 7 -14 12 -26 11 -11 -2 -21 2 -21 7 0 6
-11 15 -24 20 -18 6 -27 20 -32 44 -7 40 1 70 15 61 6 -3 14 2 19 12 8 14 13
15 26 4 15 -13 33 -16 145 -25 30 -3 64 -7 76 -10 13 -3 36 1 51 9 16 8 25 16
19 16 -5 1 -14 3 -20 4 -5 0 -32 5 -60 9 -91 14 -105 15 -105 5 0 -6 -9 -4
-22 3 -13 7 -30 11 -38 10 -9 -2 -11 0 -5 5 12 9 13 33 2 50 -10 16 -3 19 99
42 49 11 99 23 112 27 13 4 22 2 22 -4 0 -10 55 -9 115 2 11 2 23 -2 27 -8 4
-6 10 -7 14 -4 3 4 -3 19 -15 34 -11 15 -21 23 -21 18 0 -12 -67 -16 -75 -4
-3 5 -12 7 -20 3 -8 -3 -15 0 -15 7 0 6 4 9 8 6 5 -3 21 4 38 15 16 10 38 19
49 19 11 0 34 11 50 25 l30 24 -27 1 c-44 0 -131 -37 -161 -70 -30 -32 -47
-38 -47 -17 0 6 -13 20 -30 29 -23 13 -37 15 -62 7 -34 -9 -93 5 -83 21 5 8
-43 20 -84 20 -15 0 -36 -8 -47 -18 -24 -23 -54 -35 -54 -22 0 15 -17 12 -34
-5 -16 -17 -51 -21 -41 -5 3 6 1 10 -4 10 -6 0 -11 -6 -11 -12 0 -9 -4 -8 -10
2 -6 10 -10 11 -10 3 0 -7 -4 -13 -10 -13 -24 0 -6 32 47 83 53 53 113 88 113
66 0 -5 5 -9 10 -9 6 0 10 10 10 21 0 16 -5 20 -20 16 -10 -3 -21 0 -22 5 -4
11 -95 -61 -165 -130 -23 -23 -47 -42 -53 -42 -5 0 -10 -4 -10 -9 0 -13 -47
-60 -54 -54 -3 4 -6 0 -6 -7 0 -7 -3 -10 -7 -7 -12 13 -31 -37 -19 -52 8 -11
8 -13 0 -8 -7 4 -15 0 -18 -9 -3 -9 -2 -12 4 -9 6 4 20 -4 31 -17 11 -13 18
-18 15 -11 -4 6 -2 14 4 18 6 4 8 -11 4 -42 -8 -67 -12 -76 -30 -69 -9 3 -12
2 -9 -4 8 -13 -4 -50 -16 -50 -5 0 -9 6 -9 14 0 8 -9 17 -19 21 -12 4 -18 12
-14 20 3 8 -2 18 -11 21 -9 3 -16 13 -16 21 0 10 -6 12 -20 8 -14 -5 -20 -2
-20 9 0 9 -4 16 -10 16 -5 0 -10 -6 -10 -12 0 -7 -10 2 -23 20 -12 17 -30 34
-40 38 -9 3 -22 14 -28 25 -5 11 -14 17 -18 15 -4 -3 -6 6 -3 21 3 18 1 24 -7
19 -7 -5 -11 2 -11 18 0 14 -5 26 -11 26 -12 0 -8 -134 6 -164 5 -12 5 -17 -1
-13 -6 4 -9 -6 -6 -24 2 -16 8 -29 13 -29 5 0 8 -3 7 -7 -1 -5 9 -30 21 -58
35 -76 60 -153 53 -160 -4 -3 -2 -9 3 -13 21 -15 66 -83 61 -91 -3 -5 2 -33
11 -62 17 -55 43 -86 163 -189 54 -46 110 -118 110 -142 1 -15 37 -51 92 -92
21 -16 35 -32 32 -37 -3 -5 3 -9 13 -9 10 0 38 -18 62 -40 24 -22 47 -37 52
-34 5 3 9 -1 9 -9 0 -8 8 -17 18 -20 9 -4 35 -13 57 -21 22 -9 47 -16 56 -16
8 0 24 -7 35 -15 18 -14 18 -14 -4 -15 -13 0 -20 4 -17 10 3 6 1 10 -4 10 -6
0 -11 -5 -11 -10 0 -14 48 -32 83 -32 15 0 27 -4 27 -9 0 -6 10 -8 23 -4 17 5
18 4 7 -4 -26 -18 -2 -24 52 -13 29 5 62 6 73 2 12 -5 29 -3 41 3 19 11 38 17
62 19 6 1 12 5 12 10 0 4 3 7 8 6 8 -2 51 16 94 38 14 8 33 14 42 14 16 0 26
4 73 28 13 7 30 12 38 12 9 0 18 7 21 15 4 8 10 13 14 10 10 -6 100 63 100 77
0 6 3 9 6 5 10 -10 95 53 113 84 9 16 23 31 32 34 17 6 109 99 109 110 0 4 6
12 13 19 6 7 26 30 42 51 17 21 45 55 64 74 18 20 42 54 52 77 10 22 27 49 39
59 11 10 20 24 20 32 0 7 7 13 15 13 21 0 40 34 71 125 14 44 31 88 36 99 7
12 6 16 -1 11 -13 -7 -15 7 -3 21 20 22 30 130 28 297 -2 131 -6 181 -15 187
-8 4 -10 16 -7 27 4 14 2 20 -9 20 -9 0 -13 -7 -11 -16z m3 -153 c-3 -8 -6 -5
-6 6 -1 11 2 17 5 13 3 -3 4 -12 1 -19z m-27 -215 c-11 -17 -11 -17 -6 0 3 10
7 26 7 35 1 15 2 15 6 0 2 -10 -1 -25 -7 -35z m-380 -460 c0 -19 -13 -9 -16
12 -1 8 2 13 7 9 5 -3 9 -12 9 -21z"/>
<path d="M2630 2592 c0 -13 25 -33 33 -26 3 3 8 -4 12 -15 3 -12 10 -19 14
-16 15 8 91 -71 91 -95 0 -19 -2 -21 -15 -10 -9 7 -19 9 -23 5 -4 -4 -1 -10 6
-12 6 -3 12 -17 12 -32 0 -15 6 -33 13 -40 10 -10 8 -11 -7 -5 -19 7 -19 9 -1
-55 5 -17 4 -21 -5 -16 -7 4 -15 2 -19 -4 -4 -6 -16 -13 -27 -15 -64 -13 -115
-30 -124 -42 -12 -14 -8 -14 68 -14 28 0 32 -3 33 -28 0 -15 3 -21 6 -14 2 6
14 12 25 12 17 0 19 -4 14 -26 -4 -14 -3 -24 1 -22 4 2 40 19 78 39 58 30 72
34 83 23 6 -7 12 -18 12 -23 0 -17 22 -24 30 -11 6 10 16 5 40 -19 31 -31 51
-36 34 -9 -5 7 -9 20 -10 28 -1 8 -2 25 -3 38 0 13 -5 20 -11 17 -5 -3 -10 0
-10 7 0 7 -3 23 -6 36 -4 13 -2 22 5 22 6 0 11 -9 11 -19 0 -11 5 -23 10 -26
7 -4 9 2 4 19 -4 16 -2 26 5 26 18 0 13 61 -6 77 -10 7 -36 26 -58 40 -71 46
-190 137 -203 155 -7 10 -19 18 -27 18 -8 0 -18 6 -22 14 -10 17 -63 33 -63
18z m157 -224 c-3 -8 -6 -5 -6 6 -1 11 2 17 5 13 3 -3 4 -12 1 -19z m106 -37
c3 9 6 7 6 -6 1 -17 3 -17 11 -5 8 13 10 12 10 -4 0 -11 7 -28 17 -38 15 -16
15 -18 0 -18 -16 0 -67 58 -67 76 0 5 4 3 9 -5 7 -11 9 -11 14 0z"/>
<path d="M1296 2541 c-4 -6 -3 -11 3 -11 7 0 7 -9 0 -28 -8 -23 -7 -58 1 -82
1 -3 1 -15 0 -27 -2 -26 15 -31 24 -7 9 23 7 54 -3 54 -5 0 -8 20 -6 44 3 47
-7 77 -19 57z"/>
<path d="M2460 2362 c-13 -14 -12 -15 3 -9 15 6 17 3 12 -13 -4 -11 -2 -20 4
-20 12 0 14 29 3 46 -5 8 -11 7 -22 -4z"/>
<path d="M2670 2363 c0 -9 3 -13 7 -10 3 4 13 1 21 -6 13 -11 14 -9 1 11 -16
26 -29 29 -29 5z"/>
<path d="M2513 2364 c-13 -6 -6 -34 8 -34 4 0 5 7 2 17 -5 12 -3 14 7 8 9 -5
11 -4 6 3 -4 7 -8 12 -9 11 -1 0 -7 -3 -14 -5z"/>
<path d="M2554 2274 c9 -34 25 -56 36 -49 10 6 -16 61 -32 71 -7 5 -9 -2 -4
-22z"/>
<path d="M2520 2251 c0 -6 4 -13 10 -16 6 -3 7 1 4 9 -7 18 -14 21 -14 7z"/>
<path d="M2502 2194 c-10 -11 -10 -14 0 -14 7 0 19 4 26 9 11 7 11 9 0 13 -7
3 -19 -1 -26 -8z"/>
<path d="M2405 2170 c-3 -5 -1 -10 4 -10 6 0 11 5 11 10 0 6 -2 10 -4 10 -3 0
-8 -4 -11 -10z"/>
<path d="M3245 2160 c3 -5 8 -10 11 -10 2 0 4 5 4 10 0 6 -5 10 -11 10 -5 0
-7 -4 -4 -10z"/>
<path d="M3317 2083 c-13 -13 -17 -14 -17 -4 0 9 -7 6 -20 -8 -15 -18 -16 -26
-7 -36 8 -8 14 -9 18 -3 4 6 11 8 16 5 5 -3 10 4 10 15 1 12 8 25 15 29 7 4
10 10 7 13 -3 3 -13 -2 -22 -11z"/>
<path d="M2090 1998 c0 -4 6 -8 13 -9 6 0 20 -2 29 -4 9 -2 19 3 22 11 4 10
-4 13 -29 12 -19 -1 -35 -5 -35 -10z"/>
<path d="M1500 1114 c-47 -20 -92 -41 -100 -48 -8 -6 -28 -18 -43 -26 -15 -8
-52 -38 -82 -68 -53 -51 -180 -122 -220 -122 -9 0 -30 -7 -46 -16 -17 -8 -61
-26 -97 -38 -96 -33 -465 -175 -527 -202 -16 -7 -97 -39 -180 -70 -82 -31
-162 -65 -177 -76 l-28 -19 0 -215 0 -214 2500 0 2500 0 0 204 0 203 -92 39
c-51 21 -133 52 -183 70 -107 39 -211 82 -280 116 -27 14 -93 40 -145 58 -52
17 -115 44 -140 58 -25 15 -72 41 -105 58 -33 17 -81 42 -106 56 -26 14 -55
28 -65 31 -50 16 -101 57 -124 99 -14 26 -33 55 -43 66 -20 22 -133 62 -175
62 l-27 -1 30 -24 c16 -13 26 -27 22 -31 -3 -4 5 -26 19 -50 l25 -43 -25 -51
c-43 -85 -86 -141 -180 -235 -105 -104 -233 -203 -318 -246 -170 -86 -372
-137 -570 -146 l-136 -6 -139 43 c-76 23 -145 48 -153 55 -8 7 -27 16 -42 20
-15 4 -32 13 -39 21 -6 8 -15 14 -20 14 -5 0 -29 15 -53 33 -24 17 -72 52
-105 77 -107 78 -218 240 -256 373 -19 71 -13 86 65 145 67 50 65 76 -5 79
-38 2 -71 -6 -135 -33z m2104 -80 c7 -19 2 -18 -19 6 -16 17 -16 20 -3 15 9
-4 19 -13 22 -21z"/>
<path d="M2050 431 c0 -5 7 -11 14 -14 10 -4 13 -1 9 9 -6 15 -23 19 -23 5z"/>
</g>
</svg>
